**ABCDEFGHIJKLMNOPQRSTUVWXYZabcdefghijklmnopqrstuvwxyz**************************
**PARASOLID !"#$%&'()*+,-./:;<=>?@[\]^_`{|}~0123456789**************************
**PART1;
MC=AMD64;
MC_MODEL=Intel64 Family 6 Model 158 Stepping 10, GenuineIntel;
MC_ID=unknown;
OS=Windows_NT;
OS_RELEASE=unknown;
FRU=Parasolid Version 30.0, build 298, 12-15-2017;
APPL=SOLIDWORKS 2018-2018134;
SITE=;
USER=unknown;
FORMAT=text;
GUISE=transmit;
KEY=makeProjectedPlanarWire;
FILE=makeProjectedPlanarWire.x_t;
DATE=Sun Nov 12 18:28:49 2023;
**PART2;
SCH=SCH_3000298_30000;
USFLD_SIZE=0;
**PART3;
**END_OF_HEADER*****************************************************************
T51 : TRANSMIT FILE created by modeller version 300029823 SCH_3000298_30000_1300
6205 0 12 33 CCCCCCI4 mesh1006 0 I8 polyline1008 0 CCCCCCCDI5 owner1040 0 CCCCCC
I13 boundary_mesh1006 0 I17 boundary_polyline1008 0 CCCA16 index_map_offset0 0 1
 dA9 index_map82 0 A17 node_id_index_map82 0 A20 schema_embedding_map82 0 A5 chi
ld12 0 A14 lowest_node_id0 0 1 dZ1 390 0 0 0 0 0 0 0 0 1e3 1e-8 0 2 0 1 0 3 1 3
 4 5 6 0 0 7 8 9 0 0 0 0 0 0 13 255 3 99 0 1 0 10 0 0 7 10 50 255 4 2 0 10 0 0 0
 +.0162 0 0 1 0 0 0 0 -1 30 255 5 65 0 8 11 0 0 +.0162 -867361737988405e-32 -.01
5 0 1 -578241158658936e-30 29 255 6 97 0 9 12 0 .0162 -.022 -.015 19 8 CCCCCCCA5
 owner12 0 Z7 98 0 1 0 0 3 V0 16 255 8 64 0 ?13 0 14 5 0 0 1 18 255 9 95 0 15 0
 16 6 ?1 17 255 15 0 0 0 0 9 17 18 0 13 -18 16 92 0 19 9 20 12 ?1 17 19 0 21 13
 22 16 23 14 0 24 +18 20 89 0 22 16 25 26 ?1 29 12 94 0 16 26 6 .0162 -.025 -.01
5 29 26 91 0 20 27 12 .0162 -.025 -.00504545454545454 29 27 88 0 25 28 26 .0162
 -.0208 -.00218181818181818 18 25 86 0 29 20 30 27 ?1 29 28 85 0 30 31 27 .0162
 -.0208 -.01418181818181818 18 30 83 0 17 25 32 28 ?1 29 31 82 0 32 33 28 .0162
 -.0238 -.0138 18 32 80 0 34 30 35 31 ?1 29 33 79 0 35 36 31 .0162 -.022 -.0138
 18 35 77 0 37 32 38 33 ?1 29 36 76 0 38 39 33 .0162 -.022 -.004452384758803025
 18 38 74 0 40 35 41 36 ?1 29 39 73 0 41 0 36 .0162 -.0238 -.00567965748607575 1
8 41 71 0 42 38 0 39 ?1 17 42 0 43 40 44 41 34 45 0 46 +15 255 43 6 0 42 10 21 1
7 40 0 43 37 42 38 46 47 0 48 +17 44 0 43 42 37 32 49 50 0 0 +17 34 0 0 0 0 32 4
2 45 0 44 -16 45 8 0 ?42 47 0 51 0 0 1 17 46 0 0 0 0 41 40 47 0 0 -16 47 15 0 ?4
0 52 45 53 0 0 1 16 52 22 0 ?37 50 47 54 0 0 1 30 53 16 0 47 51 54 0 +.0162 -.00
490932726318054 .00720034665266479 0 .826227342807548 .56333682464151 30 51 9 0
 45 0 53 0 +.0162 -.0238 0 0 0 1 30 54 23 0 52 53 55 0 +.0162 -.022 0 0 0 -1 30
 55 30 0 50 54 56 0 +.0162 -1329954664915554e-32 -.0138 0 -1 96373526443156e-29
 16 50 29 0 ?44 18 52 55 0 0 1 30 56 37 0 18 55 57 0 +.0162 -214991395209329e-31
 3153207129736815e-32 0 .826227342807547 .563336824641511 16 18 36 0 ?17 58 50 5
6 0 0 1 30 57 44 0 58 56 59 0 +.0162 -.0208 0 0 0 1 16 58 43 0 ?29 60 18 57 0 0
 1 30 59 51 0 60 57 11 0 +.0162 -.00558533145275036 .00819181946403385 0 -.82622
7342807548 -.56333682464151 16 60 50 0 ?22 14 58 59 0 0 1 30 11 58 0 14 59 5 0 +
.0162 -.025 0 0 0 -1 16 14 57 0 ?19 8 60 11 0 0 1 17 22 0 21 19 29 20 61 60 0 23
 +15 21 7 0 17 10 0 17 29 0 21 22 17 25 62 58 0 61 +17 61 0 0 0 0 25 22 60 0 0 -
17 23 0 0 0 0 20 19 14 0 0 -17 17 0 21 29 13 30 15 18 0 62 +17 62 0 0 0 0 30 29
 58 0 0 -17 13 0 21 17 19 9 24 8 0 0 +17 24 0 0 0 0 16 13 8 0 0 -14 255 10 1 0 ?
0 0 43 3 4 +0 0 0 0 3 17 37 0 43 44 40 35 48 52 0 49 +17 48 0 0 0 0 38 37 52 0 0
 -17 49 0 0 0 0 35 44 50 0 0 -1 0 
